#N canvas 426 132 718 436 10;
#X declare -lib mrpeach;
#N canvas 382 64 743 664 superSaw 0;
#X obj 704 -237 s \$0-MIDI_PARAMETER_A;
#X obj 157 9 s \$0-MIDI_PARAMETER_B;
#X obj 157 89 s \$0-MIDI_PARAMETER_C;
#X obj 164 -83 s \$0-MIDI_PARAMETER_D;
#X obj 491 -16 s \$0-MIDI_PARAMETER_E;
#X obj 704 -257 r \$0-SUPER_SAW_PITCH;
#X obj 157 -31 r \$0-SUPER_SAW_SPREAD;
#N canvas 449 143 450 300 adsr~ 0;
#X obj 151 163 vline~;
#X msg 234 82 0 \$2;
#X obj 151 34 pack f f f f;
#X obj 151 195 outlet~;
#X obj 131 -25 inlet;
#X obj 167 -25 inlet;
#X obj 203 -25 inlet;
#X obj 239 -25 inlet;
#X text 179 -49 A;
#X text 213 -49 D;
#X text 248 -49 S;
#X text 284 -49 R;
#X text 143 -49 G;
#X obj 279 -25 inlet;
#X obj 234 59 pack f f;
#X obj 234 34 sel 0;
#X msg 151 116 1 \$2 \, \$4 \$3 \$2;
#X connect 0 0 3 0;
#X connect 1 0 0 0;
#X connect 2 0 16 0;
#X connect 4 0 15 0;
#X connect 5 0 2 1;
#X connect 6 0 2 2;
#X connect 7 0 2 3;
#X connect 13 0 14 1;
#X connect 14 0 1 0;
#X connect 15 0 14 0;
#X connect 15 1 2 0;
#X connect 16 0 0 0;
#X restore 137 -274 pd adsr~, f 29;
#X obj 136 -430 r \$0-SUPER_SAW_GATE;
#X obj 164 -249 loadbang;
#X obj 164 -227 tgl 15 0 empty empty empty 17 7 0 10 -262144 -1 -1
1 1;
#X obj 164 -185 snapshot~;
#X obj 164 -165 * 127;
#X obj 174 -403 r \$0-SUPER_SAW_ATTACK;
#X obj 174 -382 * 2000;
#X obj 220 -382 r \$0-SUPER_SAW_DECAY;
#X obj 265 -360 r \$0-SUPER_SAW_SUSTAIN;
#X obj 310 -340 r \$0-SUPER_SAW_RELEASE;
#X obj 310 -319 * 2000;
#X obj 157 49 r \$0-SUPER_SAW_NSAWS;
#X obj 220 -360 * 2000;
#X obj 179 -143 r \$0-SUPER_SAW_VOLUME;
#X obj 164 -123 * 1;
#X obj 652 -301 r \$0-SUPER_SAW_FILTER;
#X obj 652 -278 expr 127 - $f1;
#X obj 663 -219 t b f;
#X obj 653 -180 -, f 7;
#X obj 663 -241 / 2;
#X obj 156 174 s \$0-MIDI_PARAMETER_F;
#X obj 156 134 r \$0-SUPER_SAW_Q;
#X obj 164 -207 metro 50;
#X obj 175 -298 bondo 4, f 23;
#N canvas 449 143 450 300 adsr~ 0;
#X obj 151 163 vline~;
#X msg 234 82 0 \$2;
#X obj 151 34 pack f f f f;
#X obj 151 195 outlet~;
#X obj 131 -25 inlet;
#X obj 167 -25 inlet;
#X obj 203 -25 inlet;
#X obj 239 -25 inlet;
#X text 179 -49 A;
#X text 213 -49 D;
#X text 248 -49 S;
#X text 284 -49 R;
#X text 143 -49 G;
#X obj 279 -25 inlet;
#X obj 234 59 pack f f;
#X obj 234 34 sel 0;
#X msg 151 116 1 \$2 \, \$4 \$3 \$2;
#X connect 0 0 3 0;
#X connect 1 0 0 0;
#X connect 2 0 16 0;
#X connect 4 0 15 0;
#X connect 5 0 2 1;
#X connect 6 0 2 2;
#X connect 7 0 2 3;
#X connect 13 0 14 1;
#X connect 14 0 1 0;
#X connect 15 0 14 0;
#X connect 15 1 2 0;
#X connect 16 0 0 0;
#X restore 464 -278 pd adsr~, f 29;
#X obj 491 -253 loadbang;
#X obj 491 -231 tgl 15 0 empty empty empty 17 7 0 10 -262144 -1 -1
1 1;
#X obj 491 -189 snapshot~;
#X obj 491 -211 metro 50;
#X obj 491 -167 * 127;
#X obj 491 -56 -, f 5;
#X obj 491 -76 t b f;
#X obj 491 -97 * 0;
#X obj 506 -147 r \$0-SUPER_SAW_ENV_FILTER;
#X obj 506 -119 expr $f1 * 2 - 1;
#X obj 464 -430 r \$0-SUPER_SAW_GATE;
#X obj 500 -385 * 2000;
#X obj 636 -322 * 2000;
#X obj 546 -363 * 2000;
#X obj 501 -301 bondo 4, f 23;
#X obj 500 -406 r \$0-SUPER_SAW_ATTACK_FILTER;
#X obj 546 -385 r \$0-SUPER_SAW_DECAY_FILTER;
#X obj 591 -363 r \$0-SUPER_SAW_SUSTAIN_FILTER;
#X obj 636 -343 r \$0-SUPER_SAW_RELEASE_FILTER;
#X obj 486 72 r \$0-SUPER_SAW_ACTIVATE;
#X obj 486 136 s \$0-remote;
#X msg 486 116 127;
#X obj 486 96 delay 5;
#N canvas 225 333 450 300 superSawGate 0;
#X obj 115 162 spigot;
#X obj 148 101 r \$0-SUPER_SAW_ACTIVATE;
#X obj 177 123 r \$0-SUPER_SAW_DEACTIVATE;
#X msg 148 123 1;
#X msg 177 145 0;
#X obj 94 81 inlet;
#X obj 88 204 outlet;
#X connect 0 0 6 0;
#X connect 1 0 3 0;
#X connect 2 0 4 0;
#X connect 3 0 0 1;
#X connect 4 0 0 1;
#X connect 5 0 0 0;
#X restore 491 -36 pd superSawGate;
#N canvas 225 333 450 300 superSawGate 0;
#X obj 115 162 spigot;
#X obj 148 101 r \$0-SUPER_SAW_ACTIVATE;
#X obj 177 123 r \$0-SUPER_SAW_DEACTIVATE;
#X msg 148 123 1;
#X msg 177 145 0;
#X obj 94 81 inlet;
#X obj 88 204 outlet;
#X connect 0 0 6 0;
#X connect 1 0 3 0;
#X connect 2 0 4 0;
#X connect 3 0 0 1;
#X connect 4 0 0 1;
#X connect 5 0 0 0;
#X restore 164 -103 pd superSawGate;
#X connect 5 0 0 0;
#X connect 5 0 27 0;
#X connect 6 0 1 0;
#X connect 7 0 11 0;
#X connect 8 0 7 0;
#X connect 9 0 10 0;
#X connect 10 0 30 0;
#X connect 11 0 12 0;
#X connect 12 0 22 0;
#X connect 13 0 14 0;
#X connect 14 0 31 0;
#X connect 15 0 20 0;
#X connect 16 0 31 2;
#X connect 17 0 18 0;
#X connect 18 0 31 3;
#X connect 19 0 2 0;
#X connect 20 0 31 1;
#X connect 21 0 22 1;
#X connect 22 0 57 0;
#X connect 23 0 24 0;
#X connect 24 0 26 0;
#X connect 25 0 26 0;
#X connect 25 1 26 1;
#X connect 26 0 38 0;
#X connect 27 0 25 0;
#X connect 29 0 28 0;
#X connect 30 0 11 0;
#X connect 31 0 7 1;
#X connect 31 1 7 2;
#X connect 31 2 7 3;
#X connect 31 3 7 4;
#X connect 32 0 35 0;
#X connect 33 0 34 0;
#X connect 34 0 36 0;
#X connect 35 0 37 0;
#X connect 36 0 35 0;
#X connect 37 0 40 0;
#X connect 38 0 56 0;
#X connect 39 0 38 0;
#X connect 39 1 38 1;
#X connect 40 0 39 0;
#X connect 41 0 42 0;
#X connect 42 0 40 1;
#X connect 43 0 32 0;
#X connect 44 0 47 0;
#X connect 45 0 47 3;
#X connect 46 0 47 1;
#X connect 47 0 32 1;
#X connect 47 1 32 2;
#X connect 47 2 32 3;
#X connect 47 3 32 4;
#X connect 48 0 44 0;
#X connect 49 0 46 0;
#X connect 50 0 47 2;
#X connect 51 0 45 0;
#X connect 52 0 55 0;
#X connect 54 0 53 0;
#X connect 55 0 54 0;
#X connect 56 0 4 0;
#X connect 57 0 3 0;
#X restore 49 174 pd superSaw;
#N canvas 683 0 679 664 osc 1;
#X obj 339 106 routeOSC /superSaw;
#X obj 436 271 * 127;
#X obj 436 293 s \$0-SUPER_SAW_PITCH;
#X obj 339 176 route bang;
#X obj 487 268 s \$0-SUPER_SAW_SPREAD;
#X obj 373 244 route /z;
#X obj 373 313 s \$0-SUPER_SAW_GATE;
#X obj 567 150 bng 8 250 50 0 empty empty empty 17 7 0 10 -262144 -1
-1;
#X obj 567 162 s \$0-SUPER_SAW_DEACTIVATE;
#X obj 336 351 s \$0-SUPER_SAW_ACTIVATE;
#X obj 579 242 s \$0-SUPER_SAW_ATTACK;
#X obj 763 242 s \$0-SUPER_SAW_SUSTAIN;
#X obj 671 221 s \$0-SUPER_SAW_DECAY;
#X obj 855 220 s \$0-SUPER_SAW_RELEASE;
#X obj 948 257 s \$0-SUPER_SAW_NSAWS;
#X obj 948 237 * 127;
#X obj 487 247 * 127;
#X obj 1039 237 s \$0-SUPER_SAW_VOLUME;
#X obj 1133 288 s \$0-SUPER_SAW_FILTER;
#X obj 1133 268 * 127;
#X obj 1314 225 s \$0-SUPER_SAW_ENV_FILTER;
#X obj 396 199 routeOSC /pitch /spread /attack /decay /sustain /release
/nSaws /volume /filter /q /envFilter /attackFilter /decayFilter /sustainFilter
/releaseFilter, f 230;
#X obj 1404 256 s \$0-SUPER_SAW_ATTACK_FILTER;
#X obj 1496 235 s \$0-SUPER_SAW_DECAY_FILTER;
#X obj 1588 256 s \$0-SUPER_SAW_SUSTAIN_FILTER;
#X obj 1680 234 s \$0-SUPER_SAW_RELEASE_FILTER;
#X obj 444 130 routeOSC /main/preset;
#X obj 339 82 unpackOSC;
#X obj 339 58 udpreceive 8001;
#X obj 339 26 import mrpeach;
#X obj 510 87 print;
#X connect 0 0 3 0;
#X connect 0 1 26 0;
#X connect 1 0 2 0;
#X connect 3 0 9 0;
#X connect 3 1 21 0;
#X connect 5 0 6 0;
#X connect 5 1 1 0;
#X connect 7 0 8 0;
#X connect 15 0 14 0;
#X connect 16 0 4 0;
#X connect 19 0 18 0;
#X connect 21 0 5 0;
#X connect 21 1 16 0;
#X connect 21 2 10 0;
#X connect 21 3 12 0;
#X connect 21 4 11 0;
#X connect 21 5 13 0;
#X connect 21 6 15 0;
#X connect 21 7 17 0;
#X connect 21 8 19 0;
#X connect 21 10 20 0;
#X connect 21 11 22 0;
#X connect 21 12 23 0;
#X connect 21 13 24 0;
#X connect 21 14 25 0;
#X connect 26 1 7 0;
#X connect 27 0 0 0;
#X connect 27 0 30 0;
#X connect 28 0 27 0;
#X restore 49 143 pd osc;
#N canvas -4 360 796 300 midi 1;
#X obj 157 200 ctlout;
#X obj 157 138 t f b b;
#X msg 190 180 1;
#X msg 173 159 20;
#X obj 237 200 ctlout;
#X obj 237 138 t f b b;
#X msg 270 180 1;
#X obj 317 200 ctlout;
#X obj 317 138 t f b b;
#X msg 350 180 1;
#X obj 397 200 ctlout;
#X obj 397 138 t f b b;
#X msg 430 180 1;
#X msg 253 159 21;
#X msg 333 159 22;
#X msg 413 159 23;
#X obj 483 200 ctlout;
#X obj 483 138 t f b b;
#X msg 516 180 1;
#X msg 499 159 24;
#X obj 157 111 r \$0-MIDI_PARAMETER_A;
#X obj 237 85 r \$0-MIDI_PARAMETER_B;
#X obj 316 112 r \$0-MIDI_PARAMETER_C;
#X obj 397 85 r \$0-MIDI_PARAMETER_D;
#X obj 482 112 r \$0-MIDI_PARAMETER_E;
#X obj 643 200 ctlout;
#X obj 643 138 t f b b;
#X msg 676 180 1;
#X msg 659 159 25;
#X obj 643 112 r \$0-MIDI_PUSH_BUTTON;
#X obj 563 200 ctlout;
#X obj 563 138 t f b b;
#X msg 596 180 1;
#X msg 579 159 24;
#X obj 562 82 r \$0-MIDI_PARAMETER_F;
#X obj 798 194 ctlout;
#X obj 798 132 t f b b;
#X msg 814 153 26;
#X msg 837 173 1;
#X obj 798 99 r \$0-remote;
#X connect 1 0 0 0;
#X connect 1 1 3 0;
#X connect 1 2 2 0;
#X connect 2 0 0 2;
#X connect 3 0 0 1;
#X connect 5 0 4 0;
#X connect 5 1 13 0;
#X connect 5 2 6 0;
#X connect 6 0 4 2;
#X connect 8 0 7 0;
#X connect 8 1 14 0;
#X connect 8 2 9 0;
#X connect 9 0 7 2;
#X connect 11 0 10 0;
#X connect 11 1 15 0;
#X connect 11 2 12 0;
#X connect 12 0 10 2;
#X connect 13 0 4 1;
#X connect 14 0 7 1;
#X connect 15 0 10 1;
#X connect 17 0 16 0;
#X connect 17 1 19 0;
#X connect 17 2 18 0;
#X connect 18 0 16 2;
#X connect 19 0 16 1;
#X connect 20 0 1 0;
#X connect 21 0 5 0;
#X connect 22 0 8 0;
#X connect 23 0 11 0;
#X connect 24 0 17 0;
#X connect 26 0 25 0;
#X connect 26 1 28 0;
#X connect 26 2 27 0;
#X connect 27 0 25 2;
#X connect 28 0 25 1;
#X connect 29 0 26 0;
#X connect 31 0 30 0;
#X connect 31 1 33 0;
#X connect 31 2 32 0;
#X connect 32 0 30 2;
#X connect 33 0 30 1;
#X connect 34 0 31 0;
#X connect 36 0 35 0;
#X connect 36 1 37 0;
#X connect 36 2 38 0;
#X connect 37 0 35 1;
#X connect 38 0 35 2;
#X connect 39 0 36 0;
#X restore 48 74 pd midi;
#X obj 198 71 moonlib/mknob 25 100 0 1 0 0 empty empty empty -2 -6
0 8 -260097 -1 -1 0 1;
#X obj 238 71 moonlib/mknob 25 100 0 1 0 0 empty empty empty -2 -6
0 8 -159808 -1 -1 2929 1;
#X obj 198 111 moonlib/mknob 25 100 0 1 0 0 empty empty empty -2 -6
0 8 -260097 -1 -1 4851 1;
#X obj 238 111 moonlib/mknob 25 100 0 1 0 0 empty empty empty -2 -6
0 8 -159808 -1 -1 0 1;
#X obj 198 151 moonlib/mknob 25 100 0 1 0 0 empty empty empty -2 -6
0 8 -260097 -1 -1 9080 1;
#X obj 238 151 moonlib/mknob 25 100 0 1 0 0 empty empty empty -2 -6
0 8 -159808 -1 -1 9900 1;
#X obj 198 191 moonlib/mknob 25 100 0 1 0 0 empty empty empty -2 -6
0 8 -260097 -1 -1 1703 1;
#X obj 238 191 moonlib/mknob 25 100 0 1 0 0 empty empty empty -2 -6
0 8 -159808 -1 -1 1698 1;
#X obj 316 71 moonlib/mknob 75 100 0 127 0 0 empty empty empty -2 -6
0 8 -175922 -1 -1 818 1;
#X obj 278 191 moonlib/mknob 25 100 0 1 0 0 empty empty empty -2 -6
0 8 -159808 -1 -1 5558 1;
#X obj 421 72 moonlib/mknob 35 100 0 127 0 0 empty empty empty -2 -6
0 8 -191407 -1 -1 2554 1;
#X obj 408 191 moonlib/mknob 25 100 0 1 0 0 empty empty empty -2 -6
0 8 -4034 -1 -1 7593 1;
#X obj 448 191 moonlib/mknob 25 100 0 127 0 0 empty empty empty -2
-6 0 8 -4034 -1 -1 0 1;
#X obj 556 164 s \$0-remote;
#X obj 556 115 tgl 24 0 empty empty empty 17 7 0 10 -262144 -1 -1 1
1;
#X text 556 72 Remote control;
#X obj 556 94 loadbang;
#X obj 556 144 * 127;
#X obj 195 240 hsl 274 34 0 127 0 0 empty empty empty -2 -8 0 10 -175922
-1 -1 15664 1;
#X obj 196 221 r \$0-SUPER_SAW_PITCH;
#X obj 315 26 r \$0-SUPER_SAW_SPREAD;
#X obj 90 -7 r \$0-SUPER_SAW_ATTACK;
#X obj 91 13 r \$0-SUPER_SAW_DECAY;
#X obj 90 32 r \$0-SUPER_SAW_SUSTAIN;
#X obj 92 51 r \$0-SUPER_SAW_RELEASE;
#X obj 415 167 r \$0-SUPER_SAW_NSAWS;
#X obj 407 147 r \$0-SUPER_SAW_VOLUME;
#X obj 420 48 r \$0-SUPER_SAW_FILTER;
#X obj 271 160 r \$0-SUPER_SAW_ENV_FILTER;
#X obj 243 -60 r \$0-SUPER_SAW_ATTACK_FILTER;
#X obj 247 -42 r \$0-SUPER_SAW_DECAY_FILTER;
#X obj 260 -20 r \$0-SUPER_SAW_SUSTAIN_FILTER;
#X obj 282 -1 r \$0-SUPER_SAW_RELEASE_FILTER;
#X connect 17 0 20 0;
#X connect 19 0 17 0;
#X connect 20 0 16 0;
#X connect 22 0 21 0;
#X connect 23 0 11 0;
#X connect 24 0 3 0;
#X connect 25 0 5 0;
#X connect 26 0 7 0;
#X connect 27 0 9 0;
#X connect 28 0 15 0;
#X connect 29 0 14 0;
#X connect 30 0 13 0;
#X connect 31 0 12 0;
#X connect 32 0 4 0;
#X connect 33 0 6 0;
#X connect 34 0 8 0;
#X connect 35 0 10 0;
